<svg width="16" height="16" viewBox="0 0 16 16" fill="none" xmlns="http://www.w3.org/2000/svg">
<circle cx="8" cy="8" r="8" fill="#FF2F2F"/>
<path d="M5.48469 9.98474C5.41424 10.0552 5.37466 10.1507 5.37466 10.2504C5.37466 10.35 5.41424 10.4455 5.48469 10.516C5.55513 10.5864 5.65068 10.626 5.75031 10.626C5.84994 10.626 5.94549 10.5864 6.01594 10.516L8 8.5313L9.98469 10.5154C10.0551 10.5858 10.1507 10.6254 10.2503 10.6254C10.3499 10.6254 10.4455 10.5858 10.5159 10.5154C10.5864 10.4449 10.626 10.3494 10.626 10.2497C10.626 10.1501 10.5864 10.0546 10.5159 9.98412L8.53125 8.00005L10.5153 6.01537C10.5858 5.94492 10.6253 5.84937 10.6253 5.74974C10.6253 5.65011 10.5858 5.55457 10.5153 5.48412C10.4449 5.41367 10.3493 5.37409 10.2497 5.37409C10.1501 5.37409 10.0545 5.41367 9.98406 5.48412L8 7.4688L6.01531 5.4838C5.94486 5.41336 5.84931 5.37378 5.74969 5.37378C5.65006 5.37378 5.55451 5.41336 5.48406 5.4838C5.41361 5.55425 5.37404 5.6498 5.37404 5.74943C5.37404 5.84906 5.41361 5.94461 5.48406 6.01505L7.46875 8.00005L5.48469 9.98474Z" fill="#5C0F0F"/>
</svg>
