<svg width="16" height="16" viewBox="0 0 16 16" fill="none" xmlns="http://www.w3.org/2000/svg">
<circle cx="8" cy="8" r="8" fill="#FFD02B"/>
<g clip-path="url(#clip0_71_697)">
<path d="M11.4286 8.33325H4.57143C4.41988 8.33325 4.27453 8.28057 4.16737 8.18681C4.0602 8.09304 4 7.96586 4 7.83325C4 7.70064 4.0602 7.57347 4.16737 7.4797C4.27453 7.38593 4.41988 7.33325 4.57143 7.33325H11.4286C11.5801 7.33325 11.7255 7.38593 11.8326 7.4797C11.9398 7.57347 12 7.70064 12 7.83325C12 7.96586 11.9398 8.09304 11.8326 8.18681C11.7255 8.28057 11.5801 8.33325 11.4286 8.33325Z" fill="#6B5812"/>
</g>
<defs>
<clipPath id="clip0_71_697">
<rect width="8" height="1" fill="white" transform="translate(4 7.33325)"/>
</clipPath>
</defs>
</svg>
