<svg width="1818" height="996" viewBox="0 0 1818 996" fill="none" xmlns="http://www.w3.org/2000/svg">
<g clip-path="url(#clip0_212_65)">
<rect width="1818" height="996" fill="white"/>
<path d="M1661.52 834.466C1665.23 829.121 1663.9 821.78 1658.56 818.071C1653.21 814.361 1645.87 815.689 1642.16 821.033C1638.45 826.381 1639.78 833.719 1645.12 837.429C1650.47 841.138 1657.81 839.814 1661.52 834.466ZM1705.52 853.462C1700.18 849.753 1692.84 851.08 1689.13 856.424C1685.42 861.772 1686.75 869.109 1692.09 872.818C1697.44 876.527 1704.78 875.204 1708.49 869.856C1712.2 864.512 1710.87 857.171 1705.52 853.462ZM1682.54 867.814C1682.44 866.517 1682.16 864.896 1681.76 863.131C1681.47 857.324 1678.6 851.709 1673.46 848.138C1668.88 844.96 1663.41 844.043 1658.36 845.114C1655.71 845.405 1653.27 845.789 1651.53 846.295L1650.37 846.625C1644.98 848.159 1638.27 850.067 1633.08 857.603C1628.26 864.602 1630.01 874.23 1636.97 879.06C1638.9 880.405 1641.11 881.286 1643.43 881.634C1645.76 881.982 1648.13 881.789 1650.37 881.068C1650.48 883.418 1651.13 885.71 1652.27 887.767C1653.41 889.824 1655.01 891.589 1656.95 892.925C1663.91 897.753 1673.53 896.015 1678.4 889.052C1683.65 881.553 1683.09 874.6 1682.64 869.013L1682.54 867.814Z" fill="#CDC6BF" fill-opacity="0.4"/>
<path d="M1678.41 842.43C1684.3 846.517 1692.39 845.056 1696.48 839.166C1700.56 833.276 1699.1 825.188 1693.21 821.101C1687.32 817.014 1679.23 818.475 1675.15 824.365C1671.06 830.255 1672.52 838.343 1678.41 842.43Z" fill="#CDC6BF" fill-opacity="0.4"/>
<path d="M234.499 948.921C240.288 937.749 235.92 923.994 224.746 918.204C213.572 912.414 199.82 916.781 194.031 927.953C188.238 939.134 192.601 952.881 203.778 958.672C214.954 964.463 228.706 960.102 234.499 948.921ZM323.624 974.451C312.452 968.662 298.698 973.027 292.909 984.2C287.116 995.38 291.486 1009.13 302.658 1014.91C313.832 1020.7 327.582 1016.35 333.375 1005.17C339.164 993.994 334.8 980.242 323.624 974.451ZM283.095 1007.68C282.587 1005.22 281.636 1002.18 280.44 998.893C278.436 987.825 271.544 977.765 260.786 972.192C251.212 967.231 240.505 966.825 231.075 970.133C226.061 971.349 221.468 972.692 218.262 974.093L216.126 975.013C206.164 979.293 193.766 984.617 185.679 1000.36C178.171 1014.98 183.9 1033.02 198.452 1040.56C202.486 1042.66 206.951 1043.8 211.498 1043.89C216.045 1043.99 220.552 1043.03 224.667 1041.09C225.458 1045.57 227.273 1049.81 229.971 1053.47C232.67 1057.13 236.178 1060.12 240.223 1062.2C254.769 1069.74 272.806 1064.02 280.425 1049.45C288.623 1033.77 285.821 1020.57 283.575 1009.96L283.095 1007.68Z" fill="#CDC6BF" fill-opacity="0.4"/>
<path d="M268.876 960.012C281.189 966.392 296.343 961.582 302.723 949.269C309.103 936.956 304.293 921.803 291.98 915.423C279.667 909.043 264.513 913.852 258.133 926.166C251.753 938.479 256.563 953.632 268.876 960.012Z" fill="#CDC6BF" fill-opacity="0.4"/>
<path d="M41.0925 767.226C35.024 751.32 17.2024 743.344 1.29395 749.414C-14.6145 755.484 -22.5885 773.301 -16.52 789.207C-10.4471 805.124 7.36377 813.097 23.2751 807.027C39.1864 800.956 47.1654 783.143 41.0925 767.226ZM147.125 700.22C131.22 706.289 123.243 724.107 129.312 740.013C135.384 755.93 153.199 763.895 169.104 757.827C185.013 751.757 192.994 733.95 186.921 718.033C180.853 702.127 163.037 694.149 147.125 700.22ZM144.187 771.069C141.242 769.365 137.318 767.589 132.919 765.835C119.939 757.892 103.576 755.793 88.2607 761.636C74.6301 766.837 64.5791 777.283 59.428 789.784C56.1417 795.941 53.3617 801.788 51.8894 806.287L50.8942 809.273C46.2461 823.186 40.4578 840.498 49.0734 862.841C57.0771 883.589 80.45 894.047 101.167 886.143C106.921 883.962 112.093 880.481 116.281 875.971C120.468 871.462 123.556 866.047 125.306 860.147C130.541 863.383 136.454 865.366 142.583 865.94C148.711 866.513 154.889 865.663 160.634 863.454C181.343 855.553 191.808 832.188 183.959 811.378C175.502 788.974 159.65 779.918 146.919 772.636L144.187 771.069Z" fill="#CDC6BF" fill-opacity="0.4"/>
<path d="M83.2471 742.501C100.777 735.812 109.566 716.18 102.877 698.65C96.1892 681.121 76.5568 672.332 59.0271 679.02C41.4975 685.708 32.7087 705.341 39.3969 722.87C46.085 740.4 65.7175 749.189 83.2471 742.501Z" fill="#CDC6BF" fill-opacity="0.4"/>
<path d="M1710.72 341.742C1706.92 333.694 1697.31 330.253 1689.26 334.056C1681.21 337.859 1677.77 347.468 1681.57 355.515C1685.38 363.569 1694.98 367.009 1703.03 363.205C1711.08 359.401 1714.53 349.795 1710.72 341.742ZM1763.3 302.551C1755.25 306.353 1751.81 315.963 1755.62 324.01C1759.42 332.064 1769.03 335.5 1777.07 331.697C1785.12 327.894 1788.57 318.29 1784.76 310.237C1780.96 302.189 1771.35 298.747 1763.3 302.551ZM1764.62 339.602C1763.01 338.832 1760.9 338.064 1758.53 337.326C1751.45 333.707 1742.83 333.271 1735.09 336.932C1728.19 340.191 1723.37 346.04 1721.19 352.764C1719.72 356.106 1718.51 359.265 1717.92 361.67L1717.52 363.266C1715.66 370.706 1713.34 379.963 1718.72 391.264C1723.73 401.758 1736.34 406.27 1746.82 401.317C1749.73 399.949 1752.29 397.926 1754.29 395.407C1756.29 392.889 1757.68 389.941 1758.36 386.796C1761.21 388.272 1764.38 389.068 1767.59 389.121C1770.81 389.174 1774 388.482 1776.9 387.1C1787.38 382.149 1791.9 369.548 1786.97 359.016C1781.66 347.677 1773.03 343.593 1766.1 340.309L1764.62 339.602Z" fill="#CDC6BF" fill-opacity="0.4"/>
<path d="M1731.7 327.158C1740.57 322.967 1744.36 312.38 1740.17 303.511C1735.98 294.642 1725.39 290.849 1716.53 295.04C1707.66 299.231 1703.86 309.818 1708.05 318.688C1712.25 327.557 1722.83 331.349 1731.7 327.158Z" fill="#CDC6BF" fill-opacity="0.4"/>
</g>
<defs>
<clipPath id="clip0_212_65">
<rect width="1818" height="996" fill="white"/>
</clipPath>
</defs>
</svg>
