<svg width="153" height="153" viewBox="0 0 153 153" fill="none" xmlns="http://www.w3.org/2000/svg">
<g clip-path="url(#clip0_749_1013)">
<path d="M76.5 153C118.75 153 153 118.75 153 76.5C153 34.2502 118.75 0 76.5 0C34.2502 0 0 34.2502 0 76.5C0 118.75 34.2502 153 76.5 153Z" fill="url(#paint0_linear_749_1013)"/>
<path d="M76.5 153C118.75 153 153 118.75 153 76.5C153 34.2502 118.75 0 76.5 0C34.2502 0 0 34.2502 0 76.5C0 118.75 34.2502 153 76.5 153Z" fill="url(#paint1_linear_749_1013)"/>
<path d="M69.2692 47.2355C69.2692 47.2355 64.3314 45.8696 60.86 44.0272C57.3886 42.1848 53.8057 39.0283 53.8057 39.0283" stroke="#404040" stroke-width="6" stroke-linecap="round"/>
<path d="M83.7314 47.2355C83.7314 47.2355 88.6692 45.8696 92.1406 44.0272C95.612 42.1848 99.1949 39.0283 99.1949 39.0283" stroke="#404040" stroke-width="6" stroke-linecap="round"/>
<path d="M61 62C65.9706 62 70 57.9706 70 53C70 48.0294 65.9706 44 61 44C56.0294 44 52 48.0294 52 53C52 57.9706 56.0294 62 61 62Z" fill="#404040"/>
<path d="M92 62C87.0294 62 83 57.9706 83 53C83 48.0294 87.0294 44 92 44C96.9706 44 101 48.0294 101 53C101 57.9706 96.9706 62 92 62Z" fill="#404040"/>
<path d="M65 89C65 89 71.8571 87 77.2449 87C82.6327 87 89 89 89 89" stroke="#404040" stroke-width="6" stroke-linecap="round"/>
</g>
<defs>
<linearGradient id="paint0_linear_749_1013" x1="76.5" y1="0" x2="76.5" y2="153" gradientUnits="userSpaceOnUse">
<stop stop-color="#FFD756"/>
<stop offset="1" stop-color="#FFC300"/>
</linearGradient>
<linearGradient id="paint1_linear_749_1013" x1="76.5" y1="0" x2="76.5" y2="153" gradientUnits="userSpaceOnUse">
<stop stop-color="#FF4026"/>
<stop offset="1" stop-color="#FFD241"/>
</linearGradient>
<clipPath id="clip0_749_1013">
<rect width="153" height="153" fill="white"/>
</clipPath>
</defs>
</svg>
