<svg width="153" height="153" viewBox="0 0 153 153" fill="none" xmlns="http://www.w3.org/2000/svg">
<g clip-path="url(#clip0_749_1034)">
<path d="M76.5 153C118.75 153 153 118.75 153 76.5C153 34.2502 118.75 0 76.5 0C34.2502 0 0 34.2502 0 76.5C0 118.75 34.2502 153 76.5 153Z" fill="url(#paint0_linear_749_1034)"/>
<g filter="url(#filter0_f_749_1034)">
<path d="M35 83C45.4934 83 54 77.4036 54 70.5C54 63.5964 45.4934 58 35 58C24.5066 58 16 63.5964 16 70.5C16 77.4036 24.5066 83 35 83Z" fill="#FF9B9B" fill-opacity="0.68"/>
</g>
<g filter="url(#filter1_f_749_1034)">
<path d="M119 83C129.493 83 138 77.4036 138 70.5C138 63.5964 129.493 58 119 58C108.507 58 100 63.5964 100 70.5C100 77.4036 108.507 83 119 83Z" fill="#FF9B9B" fill-opacity="0.68"/>
</g>
<path d="M59 49L67.1191 57.1191C67.3295 57.3295 67.3295 57.6705 67.1191 57.8809L59 66" stroke="#353535" stroke-width="6" stroke-linecap="round"/>
<path d="M93.4996 49L85.3805 57.1191C85.1701 57.3295 85.1701 57.6705 85.3805 57.8809L93.4996 66" stroke="#353535" stroke-width="6" stroke-linecap="round"/>
<path d="M77 106C82.5228 106 87 99.732 87 92C87 84.268 82.5228 78 77 78C71.4772 78 67 84.268 67 92C67 99.732 71.4772 106 77 106Z" fill="#353535"/>
<mask id="mask0_749_1034" style="mask-type:alpha" maskUnits="userSpaceOnUse" x="68" y="91" width="18" height="16">
<path d="M86 99C86 103.418 81.9706 107 77 107C72.0294 107 68 103.418 68 99C68 94.5817 72.0294 91 77 91C81.9706 91 86 94.5817 86 99Z" fill="#FF6B6B"/>
</mask>
<g mask="url(#mask0_749_1034)">
<path d="M77 106C82.5228 106 87 99.732 87 92C87 84.268 82.5228 78 77 78C71.4772 78 67 84.268 67 92C67 99.732 71.4772 106 77 106Z" fill="url(#paint1_linear_749_1034)"/>
</g>
</g>
<defs>
<filter id="filter0_f_749_1034" x="2.9" y="44.9" width="64.2" height="51.2" filterUnits="userSpaceOnUse" color-interpolation-filters="sRGB">
<feFlood flood-opacity="0" result="BackgroundImageFix"/>
<feBlend mode="normal" in="SourceGraphic" in2="BackgroundImageFix" result="shape"/>
<feGaussianBlur stdDeviation="6.55" result="effect1_foregroundBlur_749_1034"/>
</filter>
<filter id="filter1_f_749_1034" x="86.9" y="44.9" width="64.2" height="51.2" filterUnits="userSpaceOnUse" color-interpolation-filters="sRGB">
<feFlood flood-opacity="0" result="BackgroundImageFix"/>
<feBlend mode="normal" in="SourceGraphic" in2="BackgroundImageFix" result="shape"/>
<feGaussianBlur stdDeviation="6.55" result="effect1_foregroundBlur_749_1034"/>
</filter>
<linearGradient id="paint0_linear_749_1034" x1="76.5" y1="0" x2="76.5" y2="153" gradientUnits="userSpaceOnUse">
<stop stop-color="#FFD756"/>
<stop offset="1" stop-color="#FFC300"/>
</linearGradient>
<linearGradient id="paint1_linear_749_1034" x1="77" y1="78" x2="77" y2="106" gradientUnits="userSpaceOnUse">
<stop stop-color="#A24848"/>
<stop offset="1" stop-color="#FF6969"/>
</linearGradient>
<clipPath id="clip0_749_1034">
<rect width="153" height="153" fill="white"/>
</clipPath>
</defs>
</svg>
