<svg width="153" height="153" viewBox="0 0 153 153" fill="none" xmlns="http://www.w3.org/2000/svg">
<g clip-path="url(#clip0_749_1075)">
<path d="M76.5 153C118.75 153 153 118.75 153 76.5C153 34.2502 118.75 0 76.5 0C34.2502 0 0 34.2502 0 76.5C0 118.75 34.2502 153 76.5 153Z" fill="url(#paint0_linear_749_1075)"/>
<path d="M89 82C89 82 82.1429 84 76.7551 84C71.3673 84 65 82 65 82" stroke="#404040" stroke-width="6" stroke-linecap="round"/>
<g filter="url(#filter0_f_749_1075)">
<path d="M33 82C43.4934 82 52 76.4036 52 69.5C52 62.5964 43.4934 57 33 57C22.5066 57 14 62.5964 14 69.5C14 76.4036 22.5066 82 33 82Z" fill="#FF9B9B" fill-opacity="0.68"/>
</g>
<g filter="url(#filter1_f_749_1075)">
<path d="M117 82C127.493 82 136 76.4036 136 69.5C136 62.5964 127.493 57 117 57C106.507 57 98 62.5964 98 69.5C98 76.4036 106.507 82 117 82Z" fill="#FF9B9B" fill-opacity="0.68"/>
</g>
<path d="M53 58.5021C53 58.5021 56.9763 48.3334 62.5 48.5021C67.9228 48.6677 71.5 58.5021 71.5 58.5021" stroke="#353535" stroke-width="6" stroke-linecap="round"/>
<path d="M82 58.5021C82 58.5021 85.9763 48.3334 91.5 48.5021C96.9228 48.6677 100.5 58.5021 100.5 58.5021" stroke="#353535" stroke-width="6" stroke-linecap="round"/>
</g>
<defs>
<filter id="filter0_f_749_1075" x="0.9" y="43.9" width="64.2" height="51.2" filterUnits="userSpaceOnUse" color-interpolation-filters="sRGB">
<feFlood flood-opacity="0" result="BackgroundImageFix"/>
<feBlend mode="normal" in="SourceGraphic" in2="BackgroundImageFix" result="shape"/>
<feGaussianBlur stdDeviation="6.55" result="effect1_foregroundBlur_749_1075"/>
</filter>
<filter id="filter1_f_749_1075" x="84.9" y="43.9" width="64.2" height="51.2" filterUnits="userSpaceOnUse" color-interpolation-filters="sRGB">
<feFlood flood-opacity="0" result="BackgroundImageFix"/>
<feBlend mode="normal" in="SourceGraphic" in2="BackgroundImageFix" result="shape"/>
<feGaussianBlur stdDeviation="6.55" result="effect1_foregroundBlur_749_1075"/>
</filter>
<linearGradient id="paint0_linear_749_1075" x1="76.5" y1="0" x2="76.5" y2="153" gradientUnits="userSpaceOnUse">
<stop stop-color="#FFD756"/>
<stop offset="1" stop-color="#FFC300"/>
</linearGradient>
<clipPath id="clip0_749_1075">
<rect width="153" height="153" fill="white"/>
</clipPath>
</defs>
</svg>
