<svg width="153" height="153" viewBox="0 0 153 153" fill="none" xmlns="http://www.w3.org/2000/svg">
<g clip-path="url(#clip0_749_992)">
<path d="M76.5 153C118.75 153 153 118.75 153 76.5C153 34.2502 118.75 0 76.5 0C34.2502 0 0 34.2502 0 76.5C0 118.75 34.2502 153 76.5 153Z" fill="url(#paint0_linear_749_992)"/>
<path d="M89 87C89 87 82.1429 89 76.7551 89C71.3673 89 65 87 65 87" stroke="#404040" stroke-width="6" stroke-linecap="round"/>
<g filter="url(#filter0_f_749_992)">
<path d="M33 82C43.4934 82 52 76.4036 52 69.5C52 62.5964 43.4934 57 33 57C22.5066 57 14 62.5964 14 69.5C14 76.4036 22.5066 82 33 82Z" fill="#FF9B9B" fill-opacity="0.68"/>
</g>
<g filter="url(#filter1_f_749_992)">
<path d="M117 82C127.493 82 136 76.4036 136 69.5C136 62.5964 127.493 57 117 57C106.507 57 98 62.5964 98 69.5C98 76.4036 106.507 82 117 82Z" fill="#FF9B9B" fill-opacity="0.68"/>
</g>
<path d="M61 62C65.9706 62 70 57.9706 70 53C70 48.0294 65.9706 44 61 44C56.0294 44 52 48.0294 52 53C52 57.9706 56.0294 62 61 62Z" fill="#404040"/>
<path d="M94 62C98.9706 62 103 57.9706 103 53C103 48.0294 98.9706 44 94 44C89.0294 44 85 48.0294 85 53C85 57.9706 89.0294 62 94 62Z" fill="#404040"/>
</g>
<defs>
<filter id="filter0_f_749_992" x="0.9" y="43.9" width="64.2" height="51.2" filterUnits="userSpaceOnUse" color-interpolation-filters="sRGB">
<feFlood flood-opacity="0" result="BackgroundImageFix"/>
<feBlend mode="normal" in="SourceGraphic" in2="BackgroundImageFix" result="shape"/>
<feGaussianBlur stdDeviation="6.55" result="effect1_foregroundBlur_749_992"/>
</filter>
<filter id="filter1_f_749_992" x="84.9" y="43.9" width="64.2" height="51.2" filterUnits="userSpaceOnUse" color-interpolation-filters="sRGB">
<feFlood flood-opacity="0" result="BackgroundImageFix"/>
<feBlend mode="normal" in="SourceGraphic" in2="BackgroundImageFix" result="shape"/>
<feGaussianBlur stdDeviation="6.55" result="effect1_foregroundBlur_749_992"/>
</filter>
<linearGradient id="paint0_linear_749_992" x1="76.5" y1="0" x2="76.5" y2="153" gradientUnits="userSpaceOnUse">
<stop stop-color="#FFD756"/>
<stop offset="1" stop-color="#FFC300"/>
</linearGradient>
<clipPath id="clip0_749_992">
<rect width="153" height="153" fill="white"/>
</clipPath>
</defs>
</svg>
