<svg width="153" height="153" viewBox="0 0 153 153" fill="none" xmlns="http://www.w3.org/2000/svg">
<g clip-path="url(#clip0_749_1021)">
<path d="M76.5 153C118.75 153 153 118.75 153 76.5C153 34.2502 118.75 0 76.5 0C34.2502 0 0 34.2502 0 76.5C0 118.75 34.2502 153 76.5 153Z" fill="url(#paint0_linear_749_1021)"/>
<path d="M89 89C89 89 82.1429 87 76.7551 87C71.3673 87 65 89 65 89" stroke="#404040" stroke-width="6" stroke-linecap="round"/>
<g filter="url(#filter0_f_749_1021)">
<path d="M33 82C43.4934 82 52 76.4036 52 69.5C52 62.5964 43.4934 57 33 57C22.5066 57 14 62.5964 14 69.5C14 76.4036 22.5066 82 33 82Z" fill="#FF9B9B" fill-opacity="0.68"/>
</g>
<g filter="url(#filter1_f_749_1021)">
<path d="M117 82C127.493 82 136 76.4036 136 69.5C136 62.5964 127.493 57 117 57C106.507 57 98 62.5964 98 69.5C98 76.4036 106.507 82 117 82Z" fill="#FF9B9B" fill-opacity="0.68"/>
</g>
<g filter="url(#filter2_f_749_1021)">
<path d="M117 82C127.493 82 136 76.4036 136 69.5C136 62.5964 127.493 57 117 57C106.507 57 98 62.5964 98 69.5C98 76.4036 106.507 82 117 82Z" fill="#FF9B9B" fill-opacity="0.68"/>
</g>
<path d="M47 49.8809C47 49.8809 52.1487 56 58.5 56C64.8513 56 70 49.8809 70 49.8809" stroke="#353535" stroke-width="6" stroke-linecap="round"/>
<path d="M86 49.8809C86 49.8809 91.1487 56 97.5 56C103.851 56 109 49.8809 109 49.8809" stroke="#353535" stroke-width="6" stroke-linecap="round"/>
<path d="M54.9421 73.8687C54.4627 78.3712 51.4813 80.3709 48.1044 80.0114C44.7276 79.6519 42.234 77.0692 42.7134 72.5667C43.1928 68.0643 46.7529 60.6296 50.1297 60.9891C53.5066 61.3486 55.4214 69.3663 54.9421 73.8687Z" fill="#80AFF5"/>
<path d="M102.048 73.8687C102.527 78.3712 105.509 80.3709 108.886 80.0114C112.262 79.6519 114.756 77.0692 114.277 72.5667C113.797 68.0643 110.237 60.6296 106.86 60.9891C103.483 61.3486 101.569 69.3663 102.048 73.8687Z" fill="#80AFF5"/>
</g>
<defs>
<filter id="filter0_f_749_1021" x="0.9" y="43.9" width="64.2" height="51.2" filterUnits="userSpaceOnUse" color-interpolation-filters="sRGB">
<feFlood flood-opacity="0" result="BackgroundImageFix"/>
<feBlend mode="normal" in="SourceGraphic" in2="BackgroundImageFix" result="shape"/>
<feGaussianBlur stdDeviation="6.55" result="effect1_foregroundBlur_749_1021"/>
</filter>
<filter id="filter1_f_749_1021" x="84.9" y="43.9" width="64.2" height="51.2" filterUnits="userSpaceOnUse" color-interpolation-filters="sRGB">
<feFlood flood-opacity="0" result="BackgroundImageFix"/>
<feBlend mode="normal" in="SourceGraphic" in2="BackgroundImageFix" result="shape"/>
<feGaussianBlur stdDeviation="6.55" result="effect1_foregroundBlur_749_1021"/>
</filter>
<filter id="filter2_f_749_1021" x="84.9" y="43.9" width="64.2" height="51.2" filterUnits="userSpaceOnUse" color-interpolation-filters="sRGB">
<feFlood flood-opacity="0" result="BackgroundImageFix"/>
<feBlend mode="normal" in="SourceGraphic" in2="BackgroundImageFix" result="shape"/>
<feGaussianBlur stdDeviation="6.55" result="effect1_foregroundBlur_749_1021"/>
</filter>
<linearGradient id="paint0_linear_749_1021" x1="76.5" y1="0" x2="76.5" y2="153" gradientUnits="userSpaceOnUse">
<stop stop-color="#FFD756"/>
<stop offset="1" stop-color="#FFC300"/>
</linearGradient>
<clipPath id="clip0_749_1021">
<rect width="153" height="153" fill="white"/>
</clipPath>
</defs>
</svg>
